<svg xmlns="http://www.w3.org/2000/svg" xmlns:xlink="http://www.w3.org/1999/xlink" width="1080" zoomAndPan="magnify" viewBox="0 0 810 809.999993" height="1080" preserveAspectRatio="xMidYMid meet" version="1.0"><defs><clipPath id="4b912f107b"><path d="M 283.5 399.855469 L 403.433594 399.855469 L 403.433594 526.5 L 283.5 526.5 Z M 283.5 399.855469 " clip-rule="nonzero"/></clipPath><clipPath id="58f7c98348"><path d="M 0.5 0.855469 L 120.433594 0.855469 L 120.433594 127.5 L 0.5 127.5 Z M 0.5 0.855469 " clip-rule="nonzero"/></clipPath><clipPath id="f0a915bff4"><rect x="0" width="121" y="0" height="128"/></clipPath></defs><g clip-path="url(#4b912f107b)"><g transform="matrix(1, 0, 0, 1, 283, 399)"><g clip-path="url(#f0a915bff4)"><g clip-path="url(#58f7c98348)"><path fill="#537a57" d="M 0.5 0.855469 L 120.433594 0.855469 L 120.433594 127.347656 L 0.5 127.347656 Z M 0.5 0.855469 " fill-opacity="1" fill-rule="nonzero"/></g></g></g></g><path fill="#4d3434" d="M 332.394531 607.691406 L 325.664062 659.667969 L 180.148438 659.667969 L 181.878906 599.160156 Z M 332.394531 607.691406 " fill-opacity="1" fill-rule="evenodd"/><path fill="#4d3434" d="M 301.59375 606.621094 L 435.917969 601.945312 L 435.042969 659.667969 L 408.914062 659.667969 C 408.839844 660.328125 408.804688 660.664062 408.804688 660.664062 L 327.15625 659.667969 L 304.238281 659.667969 L 301.597656 606.625 Z M 301.59375 606.621094 " fill-opacity="1" fill-rule="evenodd"/><path fill="#ffad95" d="M 113.09375 424.90625 C 113.09375 424.90625 85.664062 475.082031 80.757812 493.425781 C 70.273438 532.554688 82.675781 561.136719 98.105469 566.363281 C 113.539062 571.609375 126.652344 550.632812 138.457031 533.441406 C 153.480469 511.554688 181.882812 459.960938 181.882812 459.960938 L 113.097656 424.902344 Z M 113.09375 424.90625 " fill-opacity="1" fill-rule="evenodd"/><path fill="#ffad95" d="M 491.488281 397.5625 C 491.488281 397.5625 537.148438 462.238281 544.625 479.714844 C 560.542969 516.957031 550.164062 529.597656 535.648438 536.976562 C 521.117188 544.355469 497.777344 546.589844 483.652344 531.246094 C 465.671875 511.71875 418.246094 439.886719 418.246094 439.886719 L 491.488281 397.566406 Z M 491.488281 397.5625 " fill-opacity="1" fill-rule="evenodd"/><path fill="#fff3d6" d="M 353.121094 281.203125 L 275.335938 277.882812 C 275.335938 277.882812 197.175781 290.867188 189.480469 324.007812 C 175.53125 384.097656 206.050781 658.199219 206.050781 658.199219 L 408.789062 660.671875 C 408.789062 660.671875 439.042969 365.089844 432.492188 333.980469 C 421.828125 283.347656 353.117188 281.203125 353.117188 281.203125 Z M 353.121094 281.203125 " fill-opacity="1" fill-rule="nonzero"/><path fill="#fff3d6" d="M 221.261719 303.847656 C 197.640625 283.8125 114.671875 385.84375 85.132812 444.96875 L 182.582031 500.054688 L 262.757812 395.320312 Z M 221.261719 303.847656 " fill-opacity="1" fill-rule="evenodd"/><path fill="#fff3d6" d="M 397.578125 301.085938 C 421.210938 281.050781 506.460938 385.839844 536 444.96875 L 438.550781 500.054688 L 358.375 395.320312 Z M 397.578125 301.085938 " fill-opacity="1" fill-rule="evenodd"/><path fill="#ffad95" d="M 272.453125 227.296875 C 274.046875 247.609375 278.191406 270.234375 274.179688 277.1875 C 270.171875 284.136719 302.476562 333.265625 315.847656 332.867188 C 337.15625 332.230469 354.316406 281.449219 354.316406 281.449219 C 354.316406 281.449219 346.84375 272.902344 351.648438 230.683594 C 356.460938 188.464844 272.457031 227.292969 272.457031 227.292969 Z M 272.453125 227.296875 " fill-opacity="1" fill-rule="nonzero"/><path fill="#4d3434" d="M 389.59375 203.609375 C 389.59375 203.609375 404.585938 180.933594 402.421875 147.589844 C 399.636719 104.597656 372.949219 105.65625 372.949219 105.65625 C 372.949219 105.65625 350.9375 81.230469 310.875 84.402344 C 267.191406 87.859375 233.390625 114.441406 234.550781 151.214844 C 235.660156 186.410156 241.574219 200.460938 241.574219 200.460938 L 389.59375 203.644531 Z M 389.59375 203.609375 " fill-opacity="1" fill-rule="evenodd"/><path fill="#ffad95" d="M 255.738281 221.472656 C 264.261719 248.203125 284.824219 273.082031 319.796875 273.683594 C 354.773438 274.261719 375.6875 242.636719 379.78125 221.472656 C 404.417969 223.53125 406.195312 175.039062 388.847656 185.339844 C 371.519531 195.625 378.472656 170.363281 374.964844 155.242188 C 369.496094 131.703125 353.980469 131.917969 353.980469 131.917969 C 353.980469 131.917969 359.875 147.824219 324.421875 154.875 C 307.601562 158.222656 268.867188 155.6875 268.867188 155.6875 C 268.867188 155.6875 271.910156 188.230469 257.496094 190.03125 C 254.289062 190.429688 248.671875 180.332031 238.992188 187.671875 C 229.308594 195.019531 234.578125 222.929688 255.738281 221.46875 Z M 255.738281 221.472656 " fill-opacity="1" fill-rule="evenodd"/><path fill="#4d3434" d="M 345.726562 181.734375 C 346.199219 181.738281 346.667969 181.796875 347.132812 181.914062 C 347.597656 182.03125 348.046875 182.199219 348.484375 182.421875 C 348.921875 182.648438 349.335938 182.921875 349.730469 183.246094 C 350.121094 183.570312 350.484375 183.9375 350.816406 184.347656 C 351.148438 184.757812 351.445312 185.203125 351.707031 185.683594 C 351.964844 186.167969 352.183594 186.675781 352.363281 187.210938 C 352.539062 187.746094 352.675781 188.296875 352.761719 188.863281 C 352.851562 189.429688 352.894531 190.003906 352.890625 190.582031 C 352.886719 191.160156 352.835938 191.730469 352.738281 192.296875 C 352.644531 192.863281 352.503906 193.410156 352.316406 193.941406 C 352.132812 194.476562 351.90625 194.980469 351.640625 195.460938 C 351.371094 195.9375 351.070312 196.378906 350.730469 196.785156 C 350.394531 197.191406 350.027344 197.554688 349.628906 197.871094 C 349.234375 198.191406 348.8125 198.460938 348.375 198.675781 C 347.933594 198.894531 347.480469 199.058594 347.015625 199.167969 C 346.550781 199.277344 346.078125 199.332031 345.605469 199.328125 C 345.128906 199.324219 344.660156 199.265625 344.195312 199.148438 C 343.730469 199.035156 343.28125 198.863281 342.84375 198.640625 C 342.40625 198.414062 341.992188 198.140625 341.601562 197.816406 C 341.207031 197.496094 340.847656 197.128906 340.515625 196.714844 C 340.179688 196.304688 339.882812 195.859375 339.625 195.378906 C 339.363281 194.894531 339.144531 194.386719 338.96875 193.851562 C 338.789062 193.316406 338.65625 192.765625 338.566406 192.199219 C 338.476562 191.632812 338.4375 191.058594 338.441406 190.480469 C 338.445312 189.90625 338.492188 189.332031 338.589844 188.765625 C 338.6875 188.203125 338.828125 187.652344 339.011719 187.121094 C 339.199219 186.585938 339.425781 186.082031 339.691406 185.605469 C 339.957031 185.125 340.261719 184.683594 340.597656 184.277344 C 340.9375 183.871094 341.304688 183.507812 341.699219 183.191406 C 342.097656 182.871094 342.515625 182.605469 342.957031 182.386719 C 343.394531 182.167969 343.847656 182.003906 344.3125 181.894531 C 344.78125 181.785156 345.25 181.730469 345.726562 181.734375 Z M 345.726562 181.734375 " fill-opacity="1" fill-rule="nonzero"/><path fill="#4d3434" d="M 305.910156 190.398438 C 305.914062 190.976562 305.871094 191.550781 305.78125 192.117188 C 305.691406 192.683594 305.558594 193.234375 305.382812 193.769531 C 305.203125 194.304688 304.984375 194.8125 304.722656 195.292969 C 304.464844 195.777344 304.167969 196.222656 303.835938 196.632812 C 303.5 197.042969 303.140625 197.410156 302.746094 197.734375 C 302.355469 198.058594 301.941406 198.332031 301.503906 198.558594 C 301.066406 198.78125 300.617188 198.949219 300.152344 199.066406 C 299.6875 199.183594 299.21875 199.242188 298.742188 199.246094 C 298.269531 199.25 297.796875 199.195312 297.332031 199.085938 C 296.867188 198.976562 296.414062 198.8125 295.972656 198.59375 C 295.535156 198.375 295.117188 198.109375 294.71875 197.789062 C 294.324219 197.472656 293.953125 197.109375 293.617188 196.703125 C 293.277344 196.296875 292.976562 195.855469 292.710938 195.375 C 292.441406 194.898438 292.214844 194.394531 292.03125 193.859375 C 291.847656 193.328125 291.707031 192.777344 291.609375 192.214844 C 291.511719 191.648438 291.460938 191.074219 291.457031 190.496094 C 291.453125 189.921875 291.496094 189.347656 291.585938 188.78125 C 291.675781 188.214844 291.808594 187.664062 291.984375 187.128906 C 292.164062 186.59375 292.382812 186.085938 292.644531 185.601562 C 292.902344 185.121094 293.199219 184.675781 293.53125 184.261719 C 293.863281 183.851562 294.226562 183.484375 294.621094 183.164062 C 295.011719 182.839844 295.425781 182.566406 295.863281 182.339844 C 296.300781 182.117188 296.75 181.945312 297.214844 181.832031 C 297.679688 181.714844 298.148438 181.65625 298.625 181.652344 C 299.097656 181.648438 299.566406 181.703125 300.035156 181.8125 C 300.5 181.921875 300.953125 182.085938 301.394531 182.304688 C 301.832031 182.519531 302.25 182.789062 302.648438 183.109375 C 303.042969 183.425781 303.410156 183.789062 303.75 184.195312 C 304.089844 184.601562 304.390625 185.042969 304.65625 185.519531 C 304.925781 186 305.148438 186.503906 305.335938 187.039062 C 305.519531 187.570312 305.660156 188.117188 305.757812 188.683594 C 305.855469 189.25 305.90625 189.820312 305.910156 190.398438 Z M 305.910156 190.398438 " fill-opacity="1" fill-rule="nonzero"/><path fill="#4d3434" d="M 335.355469 178.964844 C 334.753906 178.964844 334.15625 178.71875 333.722656 178.230469 C 332.921875 177.328125 333.003906 175.949219 333.902344 175.144531 C 339.035156 170.582031 347.664062 166.523438 359.664062 173.160156 C 360.722656 173.746094 361.101562 175.074219 360.519531 176.128906 C 359.929688 177.1875 358.601562 177.566406 357.550781 176.984375 C 349.710938 172.652344 342.734375 173.132812 336.804688 178.410156 C 336.390625 178.777344 335.871094 178.960938 335.351562 178.960938 Z M 335.355469 178.964844 " fill-opacity="1" fill-rule="nonzero"/><path fill="#4d3434" d="M 285.222656 177.828125 C 284.515625 177.828125 283.824219 177.488281 283.402344 176.855469 C 282.730469 175.851562 283 174.496094 284.007812 173.824219 C 291.457031 168.84375 300.566406 168.488281 308.378906 172.871094 C 309.433594 173.460938 309.804688 174.792969 309.21875 175.847656 C 308.625 176.898438 307.292969 177.273438 306.246094 176.679688 C 299.898438 173.121094 292.5 173.410156 286.4375 177.457031 C 286.0625 177.707031 285.640625 177.828125 285.226562 177.828125 Z M 285.222656 177.828125 " fill-opacity="1" fill-rule="nonzero"/><path fill="#4d3434" d="M 319.886719 220.105469 C 317.972656 220.105469 316.085938 219.574219 314.503906 218.484375 C 313.507812 217.800781 313.257812 216.441406 313.949219 215.449219 C 314.632812 214.457031 315.992188 214.203125 316.984375 214.894531 C 319.054688 216.324219 322.261719 215.921875 324.132812 214.007812 C 326.140625 211.949219 325.867188 208.796875 323.371094 205.355469 C 315.921875 195.054688 316.871094 188.148438 318.308594 177.695312 C 318.476562 176.5 319.597656 175.585938 320.78125 175.757812 C 321.976562 175.925781 322.820312 176.957031 322.65625 178.152344 L 322.636719 178.289062 C 321.203125 188.695312 320.484375 193.917969 326.90625 202.796875 C 332.554688 210.585938 328.601562 215.6875 327.253906 217.058594 C 325.296875 219.058594 322.566406 220.109375 319.882812 220.109375 Z M 319.886719 220.105469 " fill-opacity="1" fill-rule="nonzero"/><path fill="#4d3434" d="M 319.386719 235.671875 C 319.289062 235.671875 319.1875 235.671875 319.089844 235.671875 C 312.945312 235.597656 307.496094 233.132812 303.75 228.75 C 302.96875 227.832031 303.078125 226.453125 303.992188 225.671875 C 304.914062 224.882812 306.285156 224.992188 307.074219 225.914062 C 311.007812 230.523438 316.328125 231.265625 319.148438 231.308594 C 323.269531 231.386719 326.9375 230.089844 328.6875 228.144531 C 329.492188 227.25 330.875 227.175781 331.773438 227.984375 C 332.667969 228.789062 332.742188 230.167969 331.933594 231.070312 C 329.367188 233.925781 324.578125 235.675781 319.390625 235.675781 Z M 319.386719 235.671875 " fill-opacity="1" fill-rule="nonzero"/><path fill="#4d3434" d="M 388.648438 207.953125 C 388.542969 207.953125 388.441406 207.941406 388.335938 207.925781 C 387.140625 207.753906 386.3125 206.644531 386.488281 205.453125 C 386.535156 205.121094 386.570312 204.683594 386.582031 204.296875 C 384.21875 203.773438 381.730469 202.769531 381.59375 200.496094 C 381.476562 198.523438 382.085938 196.730469 383.359375 195.320312 C 386.070312 192.324219 391.0625 191.8125 393.085938 191.726562 C 394.390625 191.710938 395.308594 192.617188 395.355469 193.820312 C 395.40625 195.027344 394.46875 196.042969 393.261719 196.09375 C 391.007812 196.183594 387.914062 196.800781 386.605469 198.246094 C 386.261719 198.628906 386.058594 199.058594 385.984375 199.558594 C 386.472656 199.761719 387.351562 200.027344 388.589844 200.238281 C 388.644531 200.261719 389.101562 200.378906 389.152344 200.402344 C 389.730469 200.652344 391.488281 201.417969 390.8125 206.082031 C 390.65625 207.167969 389.722656 207.953125 388.652344 207.953125 Z M 388.648438 207.953125 " fill-opacity="1" fill-rule="nonzero"/><path fill="#4d3434" d="M 248.257812 209.472656 C 247.5 209.472656 246.765625 209.082031 246.363281 208.375 C 245.390625 206.683594 244.585938 204.910156 245.320312 203.421875 C 245.640625 202.769531 246.597656 202.101562 247.316406 202.007812 C 250.242188 201.621094 251.25 200.738281 251.257812 200.394531 C 251.285156 199.570312 249.160156 197.058594 243.96875 196.011719 C 242.785156 195.773438 242.019531 194.621094 242.257812 193.441406 C 242.496094 192.257812 243.652344 191.5 244.832031 191.730469 C 251.214844 193.019531 255.753906 196.726562 255.625 200.546875 C 255.578125 201.824219 254.90625 204.683594 249.996094 205.941406 C 250.042969 206.027344 250.089844 206.117188 250.144531 206.210938 C 250.742188 207.253906 250.382812 208.589844 249.339844 209.191406 C 248.992188 209.390625 248.621094 209.480469 248.253906 209.480469 Z M 248.257812 209.472656 " fill-opacity="1" fill-rule="nonzero"/><path fill="#4d3434" d="M 320.628906 276.03125 C 311.800781 276.03125 303.019531 273.898438 295.335938 269.570312 C 294.28125 268.980469 293.910156 267.648438 294.5 266.59375 C 295.089844 265.546875 296.421875 265.167969 297.472656 265.761719 C 313.105469 274.5625 333.699219 273.460938 348.722656 263.019531 C 349.71875 262.332031 351.074219 262.578125 351.761719 263.566406 C 352.453125 264.558594 352.203125 265.917969 351.214844 266.609375 C 342.226562 272.855469 331.394531 276.03125 320.628906 276.03125 Z M 320.628906 276.03125 " fill-opacity="1" fill-rule="nonzero"/><path fill="#145c3f" d="M 175.953125 659.667969 L 186.242188 453.144531 L 227.949219 397.207031 C 227.949219 397.207031 227.445312 392.871094 226.648438 385.992188 C 224.183594 364.542969 218.96875 318.382812 217.800781 301.894531 C 217.621094 299.363281 217.539062 297.527344 217.574219 296.59375 C 217.582031 296.40625 217.59375 296.222656 217.617188 296.035156 C 218.976562 284.957031 247.335938 273.960938 249.882812 283.828125 C 249.949219 284.097656 250.003906 284.386719 250.03125 284.691406 C 250.917969 293.785156 258.867188 358.234375 264.609375 372.65625 C 265.097656 373.875 266.292969 374.972656 268.066406 375.953125 C 277.957031 381.410156 305.804688 383.183594 328.851562 381.738281 C 347.023438 380.59375 362.210938 377.453125 363.265625 372.53125 C 366.3125 358.253906 372.304688 305.273438 375.109375 286.007812 C 375.1875 285.484375 375.320312 285.007812 375.507812 284.574219 C 379.460938 275.386719 407.015625 284.558594 409.125 295.4375 C 409.3125 296.40625 409.449219 297.679688 409.539062 299.207031 C 409.542969 299.285156 409.546875 299.363281 409.550781 299.449219 C 410.796875 322.101562 402.378906 399.171875 402.378906 399.171875 L 439.691406 449.65625 L 447.570312 659.671875 L 408.886719 659.671875 C 408.824219 660.332031 408.785156 660.667969 408.785156 660.667969 L 327.128906 659.671875 L 175.945312 659.671875 Z M 175.953125 659.667969 " fill-opacity="1" fill-rule="evenodd"/><path fill="#4d3434" d="M 290.664062 410.238281 L 271.410156 449.492188 C 269.34375 453.707031 265.6875 456.925781 261.25 458.445312 C 256.808594 459.960938 251.949219 459.65625 247.738281 457.589844 C 243.527344 455.523438 240.308594 451.871094 238.789062 447.433594 C 237.269531 442.992188 237.578125 438.132812 239.640625 433.921875 C 239.640625 433.921875 259.488281 393.453125 270.46875 371.066406 C 274.386719 363.070312 284.046875 359.769531 292.042969 363.691406 C 310.246094 372.617188 339.152344 386.792969 339.152344 386.792969 C 344.203125 389.265625 348.058594 393.648438 349.878906 398.964844 C 351.699219 404.289062 351.328125 410.109375 348.855469 415.160156 C 346.378906 420.210938 342 424.066406 336.675781 425.890625 C 331.355469 427.707031 325.53125 427.339844 320.480469 424.863281 L 290.660156 410.242188 Z M 290.664062 410.238281 " fill-opacity="1" fill-rule="evenodd"/><path fill="#ffad95" d="M 247.972656 440.640625 C 251.027344 446.234375 249.605469 453.398438 246.222656 458.792969 C 242.84375 464.1875 237.757812 468.28125 232.988281 472.523438 C 203.46875 498.777344 168.960938 535.972656 148.632812 554.535156 C 131.46875 570.199219 104.109375 574.722656 89.011719 560.425781 C 82.128906 553.90625 79.769531 530.816406 92.804688 510.3125 C 105.84375 489.808594 177.34375 458.433594 201.144531 443.28125 C 209.90625 428.429688 208.074219 408.839844 217.910156 394.679688 C 222.199219 388.507812 228.554688 383.824219 235.714844 381.53125 C 242.875 379.238281 250.78125 379.398438 257.84375 381.945312 C 265.039062 384.535156 271.144531 389.4375 276.835938 394.535156 C 278.984375 396.464844 281.144531 398.496094 282.464844 401.050781 C 283.785156 403.609375 284.132812 406.859375 281.554688 409.863281 C 284.839844 413.792969 284.578125 420.195312 280.976562 423.839844 C 280.070312 424.746094 278.980469 425.527344 278.417969 426.679688 C 277.855469 427.816406 277.890625 429.136719 277.589844 430.378906 C 276.816406 433.679688 273.367188 436.105469 270 435.738281 C 269.707031 439.882812 265.378906 442.804688 261.238281 442.984375 C 257.09375 443.167969 253.167969 441.269531 248 440.625 L 247.96875 440.640625 Z M 247.972656 440.640625 " fill-opacity="1" fill-rule="nonzero"/><path fill="#4d3434" d="M 281.515625 410.523438 C 281.027344 410.523438 280.535156 410.363281 280.125 410.027344 C 270.488281 402.078125 260.953125 401.535156 256.375 401.273438 L 255.738281 401.238281 C 254.535156 401.164062 253.613281 400.128906 253.691406 398.925781 C 253.765625 397.722656 254.785156 396.808594 256.003906 396.875 L 256.621094 396.914062 C 261.667969 397.199219 272.160156 397.800781 282.90625 406.65625 C 283.835938 407.425781 283.964844 408.800781 283.199219 409.730469 C 282.765625 410.253906 282.144531 410.523438 281.515625 410.523438 Z M 281.515625 410.523438 " fill-opacity="1" fill-rule="nonzero"/><path fill="#4d3434" d="M 280.058594 426.484375 C 279.578125 426.484375 279.097656 426.328125 278.695312 426.007812 C 271.355469 420.144531 263.296875 416.574219 256.597656 416.210938 C 255.394531 416.144531 254.464844 415.117188 254.535156 413.910156 C 254.597656 412.703125 255.632812 411.757812 256.835938 411.847656 C 264.425781 412.257812 273.386719 416.175781 281.425781 422.59375 C 282.371094 423.347656 282.523438 424.71875 281.769531 425.664062 C 281.335938 426.203125 280.707031 426.484375 280.0625 426.484375 Z M 280.058594 426.484375 " fill-opacity="1" fill-rule="nonzero"/><path fill="#4d3434" d="M 270.773438 438.195312 C 270.359375 438.195312 269.9375 438.078125 269.566406 437.828125 C 269.375 437.699219 269.046875 437.457031 268.605469 437.132812 C 266.046875 435.234375 258.28125 429.449219 252.011719 429.320312 C 250.804688 429.296875 249.847656 428.296875 249.871094 427.089844 C 249.898438 425.886719 250.875 424.925781 252.101562 424.949219 C 259.765625 425.109375 268.082031 431.296875 271.210938 433.625 C 271.566406 433.886719 271.832031 434.085938 271.984375 434.191406 C 272.988281 434.859375 273.261719 436.21875 272.59375 437.222656 C 272.171875 437.855469 271.480469 438.199219 270.773438 438.199219 Z M 270.773438 438.195312 " fill-opacity="1" fill-rule="nonzero"/><path fill="#4d3434" d="M 108.707031 496.957031 C 107.957031 496.957031 107.222656 496.566406 106.820312 495.875 C 106.210938 494.832031 106.5625 493.496094 107.605469 492.886719 L 140.527344 473.65625 C 141.5625 473.042969 142.902344 473.394531 143.515625 474.441406 C 144.125 475.480469 143.769531 476.824219 142.730469 477.429688 L 109.808594 496.660156 C 109.464844 496.863281 109.082031 496.960938 108.710938 496.960938 Z M 108.707031 496.957031 " fill-opacity="1" fill-rule="nonzero"/><path fill="#e7e25a" d="M 320.378906 433.027344 C 316.472656 446.378906 312.398438 454.433594 314.898438 470.828125 C 317.695312 489.117188 318.273438 492.71875 311.695312 518.78125 C 311.613281 519.101562 310.308594 520.316406 307.007812 549.164062 C 303.210938 551.300781 303.300781 551.21875 299.769531 553.796875 C 316.269531 565.945312 317.835938 563.273438 331.988281 561.238281 C 346.03125 559.214844 345.753906 564.976562 359.851562 563.699219 C 373.328125 562.480469 377.804688 559.546875 394.34375 564.851562 C 403.222656 567.699219 403.273438 566.6875 412.738281 567.417969 C 412.796875 557.804688 407.753906 554 407.753906 554 C 407.753906 554 410.671875 506.867188 413.566406 493.511719 C 418.535156 470.605469 419.09375 470.785156 421.859375 447.550781 C 426.363281 444.289062 426.558594 444.453125 426.789062 443.605469 C 429.207031 434.742188 399.652344 433.839844 376.832031 426.917969 C 351.402344 419.207031 336.609375 420.65625 313.308594 421.148438 C 310.3125 421.207031 310.398438 429.171875 320.378906 433.03125 Z M 320.378906 433.027344 " fill-opacity="1" fill-rule="evenodd"/><path fill="#ffad95" d="M 526.976562 480.734375 C 542.371094 485.550781 555.675781 505.121094 552.183594 518.425781 C 548.402344 532.835938 531.113281 543.632812 491.324219 545.453125 C 465.976562 546.617188 424.316406 540.742188 399.71875 533.828125 C 384.136719 547.289062 361.3125 551.761719 341.804688 545.191406 C 336.785156 543.492188 331.828125 541.007812 328.519531 536.871094 C 325.207031 532.742188 323.925781 526.644531 325.859375 521.726562 C 327.152344 515.425781 333.601562 511.375 339.9375 510.203125 C 346.273438 509.03125 352.792969 509.953125 359.21875 509.601562 C 365.558594 509.253906 371.824219 507.652344 377.539062 504.902344 C 379.816406 503.800781 382.34375 501.921875 382.023438 499.410156 C 381.789062 497.542969 380.058594 496.292969 378.578125 495.121094 C 375.511719 492.707031 372.941406 489.679688 371.035156 486.269531 C 369.824219 484.113281 369.011719 481.109375 370.78125 479.378906 C 371.925781 478.265625 373.769531 478.179688 375.261719 478.726562 C 376.75 479.269531 378.003906 480.308594 379.277344 481.28125 C 393.6875 492.277344 408.949219 491.023438 426.097656 489.964844 C 449.824219 488.503906 510.53125 475.589844 526.984375 480.734375 Z M 526.976562 480.734375 " fill-opacity="1" fill-rule="nonzero"/><path fill="#4d3434" d="M 339.375 521.480469 C 335.375 521.480469 331.441406 520.773438 327.605469 519.355469 C 326.472656 518.9375 325.894531 517.683594 326.3125 516.550781 C 326.730469 515.414062 327.996094 514.839844 329.113281 515.257812 C 334.6875 517.3125 340.496094 517.660156 346.398438 516.289062 C 347.570312 516.019531 348.746094 516.746094 349.015625 517.925781 C 349.289062 519.101562 348.554688 520.273438 347.378906 520.546875 C 344.691406 521.171875 342.023438 521.480469 339.375 521.480469 Z M 339.375 521.480469 " fill-opacity="1" fill-rule="nonzero"/><path fill="#4d3434" d="M 339.878906 532.398438 C 335.085938 532.398438 328.953125 531.300781 324.292969 528.8125 C 323.226562 528.246094 322.824219 526.921875 323.390625 525.855469 C 323.960938 524.789062 325.28125 524.390625 326.347656 524.957031 C 331.3125 527.605469 338.664062 528.492188 342.914062 527.816406 C 344.101562 527.628906 345.226562 528.441406 345.414062 529.628906 C 345.601562 530.820312 344.789062 531.941406 343.597656 532.128906 C 342.511719 532.304688 341.25 532.394531 339.878906 532.394531 Z M 339.878906 532.398438 " fill-opacity="1" fill-rule="nonzero"/><path fill="#4d3434" d="M 339.597656 542.773438 C 336.515625 542.773438 333.550781 542.320312 331.660156 541.570312 C 330.535156 541.128906 329.984375 539.859375 330.425781 538.734375 C 330.871094 537.613281 332.140625 537.066406 333.261719 537.507812 C 335.625 538.4375 341.808594 538.925781 345.75 537.535156 C 346.882812 537.136719 348.132812 537.730469 348.535156 538.867188 C 348.941406 540.007812 348.339844 541.253906 347.203125 541.65625 C 344.996094 542.433594 342.253906 542.773438 339.601562 542.773438 Z M 339.597656 542.773438 " fill-opacity="1" fill-rule="nonzero"/><path fill="#4d3434" d="M 451.097656 488.039062 C 450.128906 488.039062 449.246094 487.390625 448.988281 486.414062 C 448.679688 485.246094 449.375 484.050781 450.542969 483.746094 C 470.074219 478.578125 487.71875 476.527344 504.492188 477.492188 C 505.699219 477.558594 506.617188 478.59375 506.550781 479.796875 C 506.480469 481.003906 505.460938 481.914062 504.242188 481.851562 C 487.9375 480.917969 470.738281 482.917969 451.660156 487.96875 C 451.472656 488.015625 451.289062 488.042969 451.101562 488.042969 Z M 451.097656 488.039062 " fill-opacity="1" fill-rule="nonzero"/><path fill="#145c3f" d="M 643.058594 400.839844 L 674.613281 400.839844 L 674.613281 501.8125 L 643.058594 501.8125 Z M 643.058594 400.839844 " fill-opacity="1" fill-rule="nonzero"/><path fill="#145c3f" d="M 685.929688 384.265625 C 690.226562 384.265625 694.34375 385.972656 697.382812 389.007812 C 700.417969 392.042969 702.128906 396.167969 702.128906 400.460938 C 702.128906 404.757812 700.421875 408.875 697.382812 411.914062 C 694.34375 414.949219 690.226562 416.65625 685.929688 416.65625 L 624.355469 416.65625 C 620.058594 416.65625 615.941406 414.949219 612.902344 411.914062 C 609.863281 408.875 608.15625 404.753906 608.15625 400.460938 C 608.15625 396.164062 609.859375 392.042969 612.902344 389.007812 C 615.941406 385.96875 620.058594 384.265625 624.355469 384.265625 Z M 685.929688 384.265625 " fill-opacity="1" fill-rule="evenodd"/><path fill="#e7e25a" d="M 731.664062 606.976562 L 496.648438 606.976562 C 496.648438 606.976562 505.855469 564.726562 510.300781 544.351562 C 511.667969 538.085938 517.214844 533.617188 523.628906 533.617188 L 562.007812 533.617188 C 562.007812 533.617188 573.445312 480.636719 578.46875 457.347656 C 579.824219 451.066406 585.378906 446.582031 591.804688 446.582031 L 718.027344 446.582031 C 725.5625 446.582031 731.667969 452.6875 731.667969 460.222656 L 731.667969 606.972656 Z M 731.664062 606.976562 " fill-opacity="1" fill-rule="evenodd"/><path fill="#4d3434" d="M 642.84375 419.417969 C 641.640625 419.417969 640.664062 418.445312 640.660156 417.242188 C 640.652344 416.035156 641.628906 415.054688 642.835938 415.046875 L 675.367188 414.90625 L 675.378906 414.90625 C 676.582031 414.90625 677.558594 415.878906 677.5625 417.082031 C 677.570312 418.289062 676.59375 419.269531 675.386719 419.277344 L 642.855469 419.417969 Z M 642.84375 419.417969 " fill-opacity="1" fill-rule="nonzero"/><path fill="#e7e25a" d="M 45.742188 606.546875 L 768.832031 606.546875 L 768.832031 728.746094 L 45.742188 728.746094 Z M 45.742188 606.546875 " fill-opacity="1" fill-rule="nonzero"/><path fill="#e7e25a" d="M 0 597.023438 L 810 597.023438 L 810 636.582031 L 0 636.582031 Z M 0 597.023438 " fill-opacity="1" fill-rule="nonzero"/><path fill="#145c3f" d="M 735.160156 636.945312 L 125.800781 636.28125 C 124.59375 636.28125 123.617188 635.300781 123.617188 634.09375 C 123.617188 632.886719 124.597656 631.910156 125.800781 631.910156 L 735.160156 632.574219 C 736.367188 632.574219 737.34375 633.554688 737.34375 634.761719 C 737.34375 635.96875 736.363281 636.945312 735.160156 636.945312 Z M 735.160156 636.945312 " fill-opacity="1" fill-rule="nonzero"/><path fill="#145c3f" d="M 735.5625 599.25 L 496.644531 599.25 C 495.414062 599.25 494.414062 598.253906 494.414062 597.023438 C 494.414062 595.792969 495.414062 594.796875 496.644531 594.796875 L 735.5625 594.796875 C 736.792969 594.796875 737.789062 595.792969 737.789062 597.023438 C 737.789062 598.253906 736.792969 599.25 735.5625 599.25 Z M 735.5625 599.25 " fill-opacity="1" fill-rule="nonzero"/></svg>